<svg width="25" height="25" viewBox="0 0 25 25" fill="none" xmlns="http://www.w3.org/2000/svg">
<path d="M13.2854 2.40104C13.2854 2.19384 13.2031 1.99513 13.0566 1.84862C12.9101 1.7021 12.7114 1.61979 12.5042 1.61979C12.297 1.61979 12.0983 1.7021 11.9517 1.84862C11.8052 1.99513 11.7229 2.19384 11.7229 2.40104V3.94271C11.7229 4.14991 11.8052 4.34862 11.9517 4.49514C12.0983 4.64165 12.297 4.72396 12.5042 4.72396C12.7114 4.72396 12.9101 4.64165 13.0566 4.49514C13.2031 4.34862 13.2854 4.14991 13.2854 3.94271V2.40104ZM18.6094 10.724C18.3923 9.87986 17.9982 9.09159 17.4531 8.41146C16.9128 7.72657 16.2351 7.16239 15.4635 6.75521C14.6939 6.35124 13.8507 6.10677 12.9844 6.03646C12.1156 5.97119 11.2427 6.08827 10.4219 6.38021C9.59646 6.66803 8.8406 7.12581 8.20312 7.72396C7.5725 8.312 7.06602 9.02037 6.71354 9.80729C6.36906 10.6063 6.19521 11.4685 6.20312 12.3385C6.17898 13.3435 6.394 14.3398 6.83047 15.2453C7.26694 16.1509 7.91236 16.9397 8.71354 17.5469L9.07812 17.8906C9.39062 18.2135 9.39062 18.2135 9.38021 18.9323V19.2656C9.36767 19.4961 9.40314 19.7267 9.48437 19.9427C9.55729 20.174 9.68646 20.3854 9.85938 20.5573C9.93854 20.6385 10.0253 20.7115 10.1198 20.776V21.8177C10.1026 22.0066 10.1231 22.1971 10.1799 22.378C10.2366 22.559 10.3287 22.727 10.4507 22.8722C10.5727 23.0175 10.7223 23.1371 10.8907 23.2243C11.0592 23.3115 11.2433 23.3645 11.4323 23.3802H13.5156C13.8982 23.3484 14.2525 23.1659 14.5006 22.8729C14.7487 22.5799 14.8702 22.2003 14.8385 21.8177V20.776C14.9326 20.7122 15.0198 20.6389 15.099 20.5573C15.2625 20.3844 15.3875 20.1781 15.4635 19.9531C15.5434 19.7331 15.5788 19.4994 15.5677 19.2656V18.8802C15.5677 18.3073 15.5677 18.3073 15.8906 17.9427L16.2865 17.5781C17.622 16.5395 18.4941 15.0161 18.7135 13.3385C18.8669 12.4696 18.8314 11.5779 18.6094 10.724ZM13.3281 21.7969H11.6823V21.1406H13.3281V21.7969ZM12.5052 10.7969C12.1654 10.7969 11.8395 10.9319 11.5992 11.1721C11.3589 11.4124 11.224 11.7383 11.224 12.0781C11.224 12.3544 11.1142 12.6193 10.9189 12.8147C10.7235 13.01 10.4586 13.1198 10.1823 13.1198C9.90602 13.1198 9.64107 13.01 9.44572 12.8147C9.25037 12.6193 9.14062 12.3544 9.14062 12.0781C9.13786 11.6355 9.223 11.1967 9.3911 10.7873C9.55921 10.3778 9.80694 10.0058 10.1199 9.69284C10.4329 9.37986 10.8049 9.13213 11.2144 8.96402C11.6238 8.79591 12.0626 8.71078 12.5052 8.71354C12.7815 8.71354 13.0464 8.82329 13.2418 9.01864C13.4371 9.21399 13.5469 9.47894 13.5469 9.75521C13.5469 10.0315 13.4371 10.2964 13.2418 10.4918C13.0464 10.6871 12.7815 10.7969 12.5052 10.7969ZM22.0469 13.401H20.1406C19.9334 13.401 19.7347 13.3187 19.5882 13.1722C19.4417 13.0257 19.3594 12.827 19.3594 12.6198C19.3594 12.4126 19.4417 12.2139 19.5882 12.0674C19.7347 11.9209 19.9334 11.8385 20.1406 11.8385H22.0469C22.2541 11.8385 22.4528 11.9209 22.5993 12.0674C22.7458 12.2139 22.8281 12.4126 22.8281 12.6198C22.8281 12.827 22.7458 13.0257 22.5993 13.1722C22.4528 13.3187 22.2541 13.401 22.0469 13.401ZM18.2135 7.14063C18.1109 7.14111 18.0092 7.12109 17.9144 7.08174C17.8196 7.04238 17.7336 6.98449 17.6615 6.91146C17.5152 6.76498 17.433 6.56641 17.433 6.35938C17.433 6.15234 17.5152 5.95378 17.6615 5.80729L19.0156 4.45313C19.1637 4.31513 19.3596 4.24 19.562 4.24357C19.7644 4.24714 19.9575 4.32913 20.1006 4.47227C20.2438 4.61541 20.3258 4.80852 20.3293 5.01092C20.3329 5.21331 20.2578 5.40919 20.1198 5.55729L18.7656 6.91146C18.6939 6.98497 18.6079 7.04318 18.513 7.08257C18.4182 7.12195 18.3163 7.1417 18.2135 7.14063ZM20.6094 20.099C20.4033 20.0935 20.2066 20.0118 20.0573 19.8698L18.7031 18.5156C18.6116 18.4249 18.5439 18.313 18.5062 18.1897C18.4684 18.0665 18.4617 17.9359 18.4866 17.8095C18.5116 17.683 18.5674 17.5648 18.6492 17.4651C18.731 17.3655 18.8361 17.2877 18.9552 17.2385C19.0981 17.1783 19.2559 17.1626 19.408 17.1934C19.56 17.2243 19.6992 17.3002 19.8073 17.4115L21.1615 18.7656C21.2352 18.8374 21.2937 18.9233 21.3337 19.0181C21.3737 19.1129 21.3943 19.2148 21.3943 19.3177C21.3943 19.4206 21.3737 19.5225 21.3337 19.6173C21.2937 19.7121 21.2352 19.798 21.1615 19.8698C21.0151 20.0163 20.8165 20.0988 20.6094 20.099ZM6.80729 7.14063C6.60016 7.14044 6.40158 7.05801 6.25521 6.91146L4.90104 5.55729C4.75462 5.40949 4.67291 5.20958 4.67389 5.00153C4.67486 4.79348 4.75845 4.59434 4.90625 4.44792C5.05405 4.3015 5.25397 4.21979 5.46202 4.22076C5.67006 4.22174 5.8692 4.30532 6.01562 4.45313L7.35938 5.80729C7.4685 5.91655 7.54279 6.05569 7.57288 6.20715C7.60297 6.35861 7.5875 6.51558 7.52842 6.65825C7.46935 6.80092 7.36932 6.92289 7.24097 7.00874C7.11262 7.0946 6.96171 7.14049 6.80729 7.14063ZM4.42187 20.099C4.31888 20.1019 4.21643 20.083 4.12127 20.0435C4.02611 20.004 3.9404 19.9448 3.86979 19.8698C3.72349 19.7233 3.64131 19.5247 3.64131 19.3177C3.64131 19.1107 3.72349 18.9121 3.86979 18.7656L5.22396 17.4115C5.37206 17.2735 5.56794 17.1983 5.77034 17.2019C5.97273 17.2055 6.16584 17.2875 6.30898 17.4306C6.45212 17.5737 6.53411 17.7668 6.53768 17.9692C6.54125 18.1716 6.46612 18.3675 6.32812 18.5156L4.98437 19.8802C4.83079 20.0208 4.63012 20.0989 4.42187 20.099ZM4.85937 13.401H2.95312C2.74592 13.401 2.54721 13.3187 2.4007 13.1722C2.25418 13.0257 2.17188 12.827 2.17188 12.6198C2.17188 12.4126 2.25418 12.2139 2.4007 12.0674C2.54721 11.9209 2.74592 11.8385 2.95312 11.8385H4.85937C5.06658 11.8385 5.26529 11.9209 5.4118 12.0674C5.55831 12.2139 5.64062 12.4126 5.64062 12.6198C5.64062 12.827 5.55831 13.0257 5.4118 13.1722C5.26529 13.3187 5.06658 13.401 4.85937 13.401Z" fill="#008C00"/>
</svg>
