<svg width="18" height="18" viewBox="0 0 18 18" fill="none" xmlns="http://www.w3.org/2000/svg">
<path d="M8.24968 6.5625V9.3225C8.24968 9.585 8.39218 9.8325 8.61718 9.9675L10.9572 11.355C11.2272 11.5125 11.5722 11.4225 11.7297 11.16C11.8872 10.89 11.8047 10.545 11.5347 10.3875L9.38218 9.105V6.555C9.37468 6.255 9.11968 6 8.81218 6C8.50468 6 8.24968 6.255 8.24968 6.5625ZM15.7497 7.125V3.1575C15.7497 2.82 15.3447 2.655 15.1122 2.895L13.7772 4.23C13.0746 3.52742 12.2258 2.9884 11.2911 2.65135C10.3564 2.3143 9.35894 2.1875 8.36968 2.28C5.22718 2.565 2.63968 5.0925 2.29468 8.235C2.11231 9.99704 2.62991 11.7601 3.73583 13.144C4.84175 14.5278 6.44733 15.4214 8.20621 15.632C9.96508 15.8427 11.7363 15.3534 13.1377 14.2699C14.5391 13.1863 15.4583 11.5953 15.6972 9.84C15.7497 9.39 15.3972 9 14.9472 9C14.5722 9 14.2572 9.2775 14.2122 9.645C13.8897 12.2625 11.6322 14.2875 8.92467 14.25C6.14217 14.2125 3.79468 11.865 3.74968 9.075C3.70468 6.15 6.08218 3.75 8.99968 3.75C10.4472 3.75 11.7597 4.3425 12.7122 5.2875L11.1447 6.855C10.9047 7.095 11.0697 7.5 11.4072 7.5H15.3747C15.5847 7.5 15.7497 7.335 15.7497 7.125Z" fill="#2B5B29" fill-opacity="0.65"/>
</svg>
