<svg width="18" height="18" viewBox="0 0 18 18" fill="none" xmlns="http://www.w3.org/2000/svg">
<path fill-rule="evenodd" clip-rule="evenodd" d="M10.6875 1.875C10.6875 1.82527 10.6677 1.77758 10.6326 1.74242C10.5974 1.70725 10.5497 1.6875 10.5 1.6875H5.25C4.70299 1.6875 4.17839 1.9048 3.79159 2.29159C3.4048 2.67839 3.1875 3.20299 3.1875 3.75V14.25C3.1875 14.797 3.4048 15.3216 3.79159 15.7084C4.17839 16.0952 4.70299 16.3125 5.25 16.3125H12.75C13.297 16.3125 13.8216 16.0952 14.2084 15.7084C14.5952 15.3216 14.8125 14.797 14.8125 14.25V6.86025C14.8125 6.81052 14.7927 6.76283 14.7576 6.72767C14.7224 6.6925 14.6747 6.67275 14.625 6.67275H11.25C11.1008 6.67275 10.9577 6.61349 10.8523 6.508C10.7468 6.40251 10.6875 6.25943 10.6875 6.11025V1.875ZM11.25 9.1875C11.3992 9.1875 11.5423 9.24676 11.6477 9.35225C11.7532 9.45774 11.8125 9.60082 11.8125 9.75C11.8125 9.89918 11.7532 10.0423 11.6477 10.1477C11.5423 10.2532 11.3992 10.3125 11.25 10.3125H6.75C6.60082 10.3125 6.45774 10.2532 6.35225 10.1477C6.24676 10.0423 6.1875 9.89918 6.1875 9.75C6.1875 9.60082 6.24676 9.45774 6.35225 9.35225C6.45774 9.24676 6.60082 9.1875 6.75 9.1875H11.25ZM11.25 12.1875C11.3992 12.1875 11.5423 12.2468 11.6477 12.3523C11.7532 12.4577 11.8125 12.6008 11.8125 12.75C11.8125 12.8992 11.7532 13.0423 11.6477 13.1477C11.5423 13.2532 11.3992 13.3125 11.25 13.3125H6.75C6.60082 13.3125 6.45774 13.2532 6.35225 13.1477C6.24676 13.0423 6.1875 12.8992 6.1875 12.75C6.1875 12.6008 6.24676 12.4577 6.35225 12.3523C6.45774 12.2468 6.60082 12.1875 6.75 12.1875H11.25Z" fill="#2B5B29" fill-opacity="0.65"/>
<path d="M11.8125 2.118C11.8125 1.98 11.9573 1.89225 12.0645 1.9785C12.1555 2.052 12.2363 2.1375 12.3068 2.235L14.5665 5.38275C14.6175 5.45475 14.562 5.54775 14.4735 5.54775H12C11.9503 5.54775 11.9026 5.52799 11.8674 5.49283C11.8323 5.45767 11.8125 5.40998 11.8125 5.36025V2.118Z" fill="#2B5B29" fill-opacity="0.65"/>
</svg>
