<svg width="24" height="24" viewBox="0 0 24 24" fill="none" xmlns="http://www.w3.org/2000/svg">
<path d="M15.865 8.279C15.865 8.92931 15.6067 9.55299 15.1468 10.0128C14.687 10.4727 14.0633 10.731 13.413 10.731C12.7627 10.731 12.139 10.4727 11.6792 10.0128C11.2193 9.55299 10.961 8.92931 10.961 8.279C10.961 7.62869 11.2193 7.00502 11.6792 6.54518C12.139 6.08534 12.7627 5.827 13.413 5.827C14.0633 5.827 14.687 6.08534 15.1468 6.54518C15.6067 7.00502 15.865 7.62869 15.865 8.279ZM9.75 6H0V10.904H4.846V18.173H9.75V6ZM18.346 6H24L18.894 18.173H13.24L18.346 6Z" fill="#008C00"/>
</svg>
