<svg width="22" height="22" viewBox="0 0 22 22" fill="none" xmlns="http://www.w3.org/2000/svg">
<path d="M11.0003 3.66667C11.9728 3.66667 12.9054 4.05298 13.5931 4.74061C14.2807 5.42824 14.667 6.36087 14.667 7.33333C14.667 8.3058 14.2807 9.23843 13.5931 9.92606C12.9054 10.6137 11.9728 11 11.0003 11C10.0279 11 9.09523 10.6137 8.4076 9.92606C7.71997 9.23843 7.33366 8.3058 7.33366 7.33333C7.33366 6.36087 7.71997 5.42824 8.4076 4.74061C9.09523 4.05298 10.0279 3.66667 11.0003 3.66667ZM11.0003 12.8333C15.052 12.8333 18.3337 14.4742 18.3337 16.5V18.3333H3.66699V16.5C3.66699 14.4742 6.94866 12.8333 11.0003 12.8333Z" fill="#008C00"/>
</svg>
